<svg width="243" height="47" viewBox="0 0 243 47" fill="none" xmlns="http://www.w3.org/2000/svg">
<path d="M5.664 24.24C4.624 24.24 3.76 24.088 3.072 23.784C2.384 23.48 1.872 23.16 1.536 22.824C1.216 22.472 1.056 22.264 1.056 22.2L1.656 21.264C1.656 21.312 1.808 21.496 2.112 21.816C2.416 22.12 2.856 22.408 3.432 22.68C4.024 22.936 4.744 23.064 5.592 23.064C6.6 23.064 7.392 22.776 7.968 22.2C8.544 21.608 8.832 20.88 8.832 20.016C8.832 19.424 8.688 18.928 8.4 18.528C8.112 18.128 7.752 17.808 7.32 17.568C6.904 17.328 6.336 17.056 5.616 16.752C4.784 16.416 4.112 16.096 3.6 15.792C3.088 15.488 2.656 15.072 2.304 14.544C1.952 14 1.776 13.312 1.776 12.48C1.776 11.168 2.192 10.128 3.024 9.36C3.856 8.576 4.968 8.184 6.36 8.184C7.048 8.184 7.664 8.288 8.208 8.496C8.768 8.688 9.216 8.904 9.552 9.144C9.888 9.368 10.056 9.496 10.056 9.528L9.816 10.584C9.816 10.552 9.656 10.424 9.336 10.2C9.016 9.976 8.608 9.768 8.112 9.576C7.616 9.384 7.064 9.288 6.456 9.288C5.56 9.288 4.856 9.536 4.344 10.032C3.832 10.528 3.576 11.2 3.576 12.048C3.576 12.64 3.712 13.136 3.984 13.536C4.272 13.92 4.624 14.232 5.04 14.472C5.472 14.712 6.04 14.976 6.744 15.264C7.592 15.616 8.272 15.952 8.784 16.272C9.296 16.576 9.728 17.008 10.08 17.568C10.448 18.128 10.632 18.848 10.632 19.728C10.632 20.608 10.424 21.392 10.008 22.08C9.608 22.752 9.032 23.28 8.28 23.664C7.528 24.048 6.656 24.24 5.664 24.24ZM14.0216 24V8.4H15.8456V24H14.0216ZM20.3732 24V8.4H22.2692L30.2372 21.264L30.1652 20.688V8.4H31.4852V24H29.9012L21.5972 10.704H21.5732L21.6932 11.448V24H20.3732ZM41.31 24.24C39.278 24.24 37.702 23.536 36.582 22.128C35.462 20.72 34.902 18.76 34.902 16.248C34.902 13.704 35.51 11.728 36.726 10.32C37.942 8.896 39.662 8.184 41.886 8.184C42.622 8.184 43.326 8.28 43.998 8.472C44.686 8.664 45.27 8.88 45.75 9.12C46.23 9.36 46.47 9.488 46.47 9.504L46.254 10.656C46.254 10.64 46.022 10.52 45.558 10.296C45.094 10.072 44.55 9.864 43.926 9.672C43.318 9.48 42.702 9.384 42.078 9.384C40.302 9.384 38.982 9.96 38.118 11.112C37.27 12.248 36.846 13.96 36.846 16.248C36.846 18.488 37.262 20.184 38.094 21.336C38.926 22.472 40.086 23.04 41.574 23.04C42.774 23.04 43.646 22.752 44.19 22.176C44.734 21.6 45.086 21.024 45.246 20.448V16.92H42.054V15.888H46.782V24H45.894L45.438 22.296C45.054 22.856 44.526 23.32 43.854 23.688C43.182 24.056 42.334 24.24 41.31 24.24ZM49.1848 24L54.4408 8.4H56.5768L61.7368 24H59.8408L58.2088 19.2H52.0888L50.4568 24H49.1848ZM52.4248 18.216H57.8968L55.1848 9.792L52.4248 18.216ZM64.5294 8.4H68.2734C69.8734 8.4 71.1134 8.816 71.9934 9.648C72.8894 10.48 73.3374 11.712 73.3374 13.344C73.3374 14.56 73.0974 15.56 72.6174 16.344C72.1374 17.112 71.5134 17.672 70.7454 18.024C69.9934 18.36 69.1854 18.528 68.3214 18.528H66.3534V24H64.5294V8.4ZM68.0574 17.52C70.2974 17.52 71.4174 16.152 71.4174 13.416C71.4174 12.072 71.1294 11.08 70.5534 10.44C69.9774 9.784 69.1534 9.456 68.0814 9.456H66.3534V17.52H68.0574ZM82.0037 24.24C80.6117 24.24 79.4117 23.92 78.4037 23.28C77.4117 22.64 76.6517 21.72 76.1237 20.52C75.5957 19.304 75.3317 17.872 75.3317 16.224C75.3317 14.576 75.5957 13.152 76.1237 11.952C76.6517 10.736 77.4117 9.808 78.4037 9.168C79.4117 8.512 80.6117 8.184 82.0037 8.184C83.3957 8.184 84.5957 8.512 85.6037 9.168C86.6117 9.808 87.3797 10.736 87.9077 11.952C88.4517 13.152 88.7237 14.576 88.7237 16.224C88.7237 17.872 88.4517 19.304 87.9077 20.52C87.3797 21.72 86.6117 22.64 85.6037 23.28C84.5957 23.92 83.3957 24.24 82.0037 24.24ZM82.0037 23.088C83.5397 23.088 84.7157 22.504 85.5317 21.336C86.3637 20.168 86.7797 18.464 86.7797 16.224C86.7797 14 86.3637 12.296 85.5317 11.112C84.7157 9.928 83.5397 9.336 82.0037 9.336C80.4837 9.336 79.3157 9.928 78.4997 11.112C77.6837 12.296 77.2757 14 77.2757 16.224C77.2757 18.464 77.6757 20.168 78.4757 21.336C79.2917 22.504 80.4677 23.088 82.0037 23.088ZM92.1388 8.4H95.9068C97.4908 8.4 98.7308 8.816 99.6268 9.648C100.523 10.464 100.971 11.64 100.971 13.176C100.971 14.408 100.707 15.416 100.179 16.2C99.6508 16.984 98.9548 17.544 98.0908 17.88L102.003 24H99.9148L96.3388 18.216H93.9628V24H92.1388V8.4ZM95.9068 17.136C96.9468 17.136 97.7308 16.84 98.2588 16.248C98.7868 15.656 99.0508 14.656 99.0508 13.248C99.0508 10.72 97.9308 9.456 95.6908 9.456H93.9628V17.136H95.9068ZM105.076 24V8.4H113.476V9.552H106.9V15.552H112.924V16.656H106.9V22.848H114.004V24H105.076ZM128.578 24.24C126.418 24.24 124.738 23.544 123.538 22.152C122.338 20.744 121.738 18.808 121.738 16.344C121.738 14.696 122.01 13.256 122.554 12.024C123.114 10.792 123.898 9.848 124.906 9.192C125.93 8.52 127.114 8.184 128.458 8.184C129.194 8.184 129.898 8.28 130.57 8.472C131.258 8.664 131.842 8.88 132.322 9.12C132.802 9.36 133.042 9.488 133.042 9.504L132.826 10.656C132.826 10.64 132.594 10.52 132.13 10.296C131.666 10.072 131.122 9.864 130.498 9.672C129.89 9.48 129.274 9.384 128.65 9.384C127.098 9.384 125.882 9.976 125.002 11.16C124.122 12.328 123.682 14.04 123.682 16.296C123.682 18.52 124.13 20.2 125.026 21.336C125.922 22.472 127.178 23.04 128.794 23.04C129.642 23.04 130.386 22.864 131.026 22.512C131.666 22.16 132.17 21.784 132.538 21.384C132.922 20.984 133.114 20.752 133.114 20.688L133.786 21.456C133.786 21.536 133.578 21.816 133.162 22.296C132.746 22.76 132.146 23.2 131.362 23.616C130.594 24.032 129.666 24.24 128.578 24.24ZM142.097 24.24C140.705 24.24 139.505 23.92 138.497 23.28C137.505 22.64 136.745 21.72 136.217 20.52C135.689 19.304 135.425 17.872 135.425 16.224C135.425 14.576 135.689 13.152 136.217 11.952C136.745 10.736 137.505 9.808 138.497 9.168C139.505 8.512 140.705 8.184 142.097 8.184C143.489 8.184 144.689 8.512 145.697 9.168C146.705 9.808 147.473 10.736 148.001 11.952C148.545 13.152 148.817 14.576 148.817 16.224C148.817 17.872 148.545 19.304 148.001 20.52C147.473 21.72 146.705 22.64 145.697 23.28C144.689 23.92 143.489 24.24 142.097 24.24ZM142.097 23.088C143.633 23.088 144.809 22.504 145.625 21.336C146.457 20.168 146.873 18.464 146.873 16.224C146.873 14 146.457 12.296 145.625 11.112C144.809 9.928 143.633 9.336 142.097 9.336C140.577 9.336 139.409 9.928 138.593 11.112C137.777 12.296 137.369 14 137.369 16.224C137.369 18.464 137.769 20.168 138.569 21.336C139.385 22.504 140.561 23.088 142.097 23.088ZM157.417 24.24C155.673 24.24 154.337 23.76 153.409 22.8C152.497 21.84 152.041 20.544 152.041 18.912V8.4H153.841V18.504C153.841 19.96 154.161 21.08 154.801 21.864C155.441 22.632 156.377 23.016 157.609 23.016C158.889 23.016 159.849 22.624 160.489 21.84C161.145 21.04 161.473 19.928 161.473 18.504V8.4H162.793V18.912C162.793 20.544 162.345 21.84 161.449 22.8C160.553 23.76 159.209 24.24 157.417 24.24ZM167.115 8.4H170.883C172.467 8.4 173.707 8.816 174.603 9.648C175.499 10.464 175.947 11.64 175.947 13.176C175.947 14.408 175.683 15.416 175.155 16.2C174.627 16.984 173.931 17.544 173.067 17.88L176.979 24H174.891L171.315 18.216H168.939V24H167.115V8.4ZM170.883 17.136C171.923 17.136 172.707 16.84 173.235 16.248C173.763 15.656 174.027 14.656 174.027 13.248C174.027 10.72 172.907 9.456 170.667 9.456H168.939V17.136H170.883ZM182.405 24V9.552H177.965V8.4H188.693V9.552H184.229V24H182.405ZM194.523 24.24C193.483 24.24 192.619 24.088 191.931 23.784C191.243 23.48 190.731 23.16 190.395 22.824C190.075 22.472 189.915 22.264 189.915 22.2L190.515 21.264C190.515 21.312 190.667 21.496 190.971 21.816C191.275 22.12 191.715 22.408 192.291 22.68C192.883 22.936 193.603 23.064 194.451 23.064C195.459 23.064 196.251 22.776 196.827 22.2C197.403 21.608 197.691 20.88 197.691 20.016C197.691 19.424 197.547 18.928 197.259 18.528C196.971 18.128 196.611 17.808 196.179 17.568C195.763 17.328 195.195 17.056 194.475 16.752C193.643 16.416 192.971 16.096 192.459 15.792C191.947 15.488 191.515 15.072 191.163 14.544C190.811 14 190.635 13.312 190.635 12.48C190.635 11.168 191.051 10.128 191.883 9.36C192.715 8.576 193.827 8.184 195.219 8.184C195.907 8.184 196.523 8.288 197.067 8.496C197.627 8.688 198.075 8.904 198.411 9.144C198.747 9.368 198.915 9.496 198.915 9.528L198.675 10.584C198.675 10.552 198.515 10.424 198.195 10.2C197.875 9.976 197.467 9.768 196.971 9.576C196.475 9.384 195.923 9.288 195.315 9.288C194.419 9.288 193.715 9.536 193.203 10.032C192.691 10.528 192.435 11.2 192.435 12.048C192.435 12.64 192.571 13.136 192.843 13.536C193.131 13.92 193.483 14.232 193.899 14.472C194.331 14.712 194.899 14.976 195.603 15.264C196.451 15.616 197.131 15.952 197.643 16.272C198.155 16.576 198.587 17.008 198.939 17.568C199.307 18.128 199.491 18.848 199.491 19.728C199.491 20.608 199.283 21.392 198.867 22.08C198.467 22.752 197.891 23.28 197.139 23.664C196.387 24.048 195.515 24.24 194.523 24.24Z" fill="white"/>
<rect x="213" y="5" width="30" height="21" rx="4" fill="white"/>
<path d="M217.572 19V12.6016H219.813C220.589 12.6016 221.178 12.751 221.58 13.0498C221.981 13.3457 222.182 13.7808 222.182 14.355C222.182 14.6685 222.101 14.9453 221.94 15.1855C221.779 15.4229 221.555 15.5972 221.268 15.7085C221.596 15.7905 221.854 15.9561 222.041 16.2051C222.231 16.4541 222.327 16.7588 222.327 17.1191C222.327 17.7344 222.13 18.2002 221.738 18.5166C221.345 18.833 220.786 18.9941 220.059 19H217.572ZM218.89 16.2139V17.9409H220.02C220.33 17.9409 220.572 17.8677 220.745 17.7212C220.92 17.5718 221.008 17.3667 221.008 17.106C221.008 16.52 220.705 16.2227 220.099 16.2139H218.89ZM218.89 15.2822H219.866C220.531 15.2705 220.863 15.0054 220.863 14.4868C220.863 14.1968 220.778 13.9888 220.608 13.8628C220.441 13.7339 220.176 13.6694 219.813 13.6694H218.89V15.2822ZM227.169 16.2271H224.638V17.9409H227.609V19H223.32V12.6016H227.6V13.6694H224.638V15.1943H227.169V16.2271ZM233.287 13.6694H231.327V19H230.008V13.6694H228.075V12.6016H233.287V13.6694ZM237.127 17.6816H234.816L234.376 19H232.975L235.356 12.6016H236.578L238.973 19H237.571L237.127 17.6816ZM235.172 16.6138H236.771L235.967 14.2188L235.172 16.6138Z" fill="#303440"/>
<path d="M68.9723 35.3945H66.2301V43H65.1109V35.3945H62.3746V34.4688H68.9723V35.3945ZM71.752 37.4277C72.2324 36.8379 72.8574 36.543 73.627 36.543C74.9668 36.543 75.6426 37.2988 75.6543 38.8105V43H74.5703V38.8047C74.5664 38.3477 74.4609 38.0098 74.2539 37.791C74.0508 37.5723 73.7324 37.4629 73.2988 37.4629C72.9473 37.4629 72.6387 37.5566 72.373 37.7441C72.1074 37.9316 71.9004 38.1777 71.752 38.4824V43H70.668V34H71.752V37.4277ZM80.5082 43.1172C79.6488 43.1172 78.9496 42.8359 78.4105 42.2734C77.8715 41.707 77.602 40.9512 77.602 40.0059V39.8066C77.602 39.1777 77.7211 38.6172 77.9594 38.125C78.2016 37.6289 78.5375 37.2422 78.9672 36.9648C79.4008 36.6836 79.8695 36.543 80.3734 36.543C81.1977 36.543 81.8383 36.8145 82.2953 37.3574C82.7523 37.9004 82.9809 38.6777 82.9809 39.6895V40.1406H78.6859C78.7016 40.7656 78.8832 41.2715 79.2309 41.6582C79.5824 42.041 80.0277 42.2324 80.5668 42.2324C80.9496 42.2324 81.2738 42.1543 81.5395 41.998C81.8051 41.8418 82.0375 41.6348 82.2367 41.377L82.8988 41.8926C82.3676 42.709 81.5707 43.1172 80.5082 43.1172ZM80.3734 37.4336C79.9359 37.4336 79.5688 37.5938 79.2719 37.9141C78.975 38.2305 78.7914 38.6758 78.7211 39.25H81.8969V39.168C81.8656 38.6172 81.7172 38.1914 81.4516 37.8906C81.1859 37.5859 80.8266 37.4336 80.3734 37.4336ZM92.1613 34.4688H93.2922V40.5098C93.2922 41.3262 93.0461 41.9648 92.5539 42.4258C92.0656 42.8867 91.4133 43.1172 90.5969 43.1172C89.7492 43.1172 89.0891 42.9004 88.6164 42.4668C88.1438 42.0332 87.9074 41.4258 87.9074 40.6445H89.0324C89.0324 41.1328 89.1652 41.5137 89.4309 41.7871C89.7004 42.0605 90.0891 42.1973 90.5969 42.1973C91.0617 42.1973 91.4367 42.0508 91.7219 41.7578C92.0109 41.4648 92.1574 41.0547 92.1613 40.5273V34.4688ZM99.5523 42.373C99.1305 42.8691 98.5113 43.1172 97.6949 43.1172C97.0191 43.1172 96.5035 42.9219 96.148 42.5312C95.7965 42.1367 95.6188 41.5547 95.6148 40.7852V36.6602H96.6988V40.7559C96.6988 41.7168 97.0895 42.1973 97.8707 42.1973C98.6988 42.1973 99.2496 41.8887 99.523 41.2715V36.6602H100.607V43H99.5758L99.5523 42.373ZM102.596 39.7773C102.596 38.8047 102.826 38.0234 103.287 37.4336C103.748 36.8398 104.352 36.543 105.098 36.543C105.84 36.543 106.428 36.7969 106.861 37.3047V34H107.945V43H106.949L106.896 42.3203C106.463 42.8516 105.859 43.1172 105.086 43.1172C104.352 43.1172 103.752 42.8164 103.287 42.2148C102.826 41.6133 102.596 40.8281 102.596 39.8594V39.7773ZM103.68 39.9004C103.68 40.6191 103.828 41.1816 104.125 41.5879C104.422 41.9941 104.832 42.1973 105.355 42.1973C106.043 42.1973 106.545 41.8887 106.861 41.2715V38.3594C106.537 37.7617 106.039 37.4629 105.367 37.4629C104.836 37.4629 104.422 37.668 104.125 38.0781C103.828 38.4883 103.68 39.0957 103.68 39.9004ZM111.411 43H110.327V36.6602H111.411V43ZM110.239 34.9785C110.239 34.8027 110.291 34.6543 110.397 34.5332C110.506 34.4121 110.666 34.3516 110.877 34.3516C111.088 34.3516 111.248 34.4121 111.358 34.5332C111.467 34.6543 111.522 34.8027 111.522 34.9785C111.522 35.1543 111.467 35.3008 111.358 35.418C111.248 35.5352 111.088 35.5938 110.877 35.5938C110.666 35.5938 110.506 35.5352 110.397 35.418C110.291 35.3008 110.239 35.1543 110.239 34.9785ZM116.294 42.2324C116.68 42.2324 117.018 42.1152 117.307 41.8809C117.596 41.6465 117.757 41.3535 117.788 41.002H118.813C118.794 41.3652 118.669 41.7109 118.438 42.0391C118.208 42.3672 117.899 42.6289 117.513 42.8242C117.13 43.0195 116.723 43.1172 116.294 43.1172C115.43 43.1172 114.743 42.8301 114.231 42.2559C113.723 41.6777 113.47 40.8887 113.47 39.8887V39.707C113.47 39.0898 113.583 38.541 113.809 38.0605C114.036 37.5801 114.36 37.207 114.782 36.9414C115.208 36.6758 115.71 36.543 116.288 36.543C116.999 36.543 117.589 36.7559 118.057 37.1816C118.53 37.6074 118.782 38.1602 118.813 38.8398H117.788C117.757 38.4297 117.6 38.0938 117.319 37.832C117.042 37.5664 116.698 37.4336 116.288 37.4336C115.737 37.4336 115.309 37.6328 115.005 38.0312C114.704 38.4258 114.554 38.998 114.554 39.748V39.9531C114.554 40.6836 114.704 41.2461 115.005 41.6406C115.305 42.0352 115.735 42.2324 116.294 42.2324ZM121.81 43H120.726V36.6602H121.81V43ZM120.638 34.9785C120.638 34.8027 120.691 34.6543 120.796 34.5332C120.905 34.4121 121.066 34.3516 121.277 34.3516C121.488 34.3516 121.648 34.4121 121.757 34.5332C121.866 34.6543 121.921 34.8027 121.921 34.9785C121.921 35.1543 121.866 35.3008 121.757 35.418C121.648 35.5352 121.488 35.5938 121.277 35.5938C121.066 35.5938 120.905 35.5352 120.796 35.418C120.691 35.3008 120.638 35.1543 120.638 34.9785ZM128.064 43C128.002 42.875 127.951 42.6523 127.912 42.332C127.408 42.8555 126.806 43.1172 126.107 43.1172C125.482 43.1172 124.968 42.9414 124.566 42.5898C124.168 42.2344 123.968 41.7852 123.968 41.2422C123.968 40.582 124.218 40.0703 124.718 39.707C125.222 39.3398 125.929 39.1562 126.839 39.1562H127.894V38.6582C127.894 38.2793 127.781 37.9785 127.554 37.7559C127.328 37.5293 126.994 37.416 126.552 37.416C126.166 37.416 125.841 37.5137 125.58 37.709C125.318 37.9043 125.187 38.1406 125.187 38.418H124.097C124.097 38.1016 124.209 37.7969 124.431 37.5039C124.658 37.207 124.963 36.9727 125.345 36.8008C125.732 36.6289 126.156 36.543 126.617 36.543C127.347 36.543 127.92 36.7266 128.334 37.0938C128.748 37.457 128.963 37.959 128.978 38.5996V41.5176C128.978 42.0996 129.052 42.5625 129.201 42.9062V43H128.064ZM126.265 42.1738C126.605 42.1738 126.927 42.0859 127.232 41.9102C127.537 41.7344 127.757 41.5059 127.894 41.2246V39.9238H127.045C125.716 39.9238 125.052 40.3125 125.052 41.0898C125.052 41.4297 125.166 41.6953 125.392 41.8867C125.619 42.0781 125.91 42.1738 126.265 42.1738ZM134.342 37.6328C134.178 37.6055 134 37.5918 133.809 37.5918C133.098 37.5918 132.615 37.8945 132.361 38.5V43H131.277V36.6602H132.332L132.35 37.3926C132.705 36.8262 133.209 36.543 133.861 36.543C134.072 36.543 134.232 36.5703 134.342 36.625V37.6328ZM138.123 41.4121L139.6 36.6602H140.76L138.211 43.9785C137.817 45.0332 137.19 45.5605 136.33 45.5605L136.125 45.543L135.721 45.4668V44.5879L136.014 44.6113C136.381 44.6113 136.666 44.5371 136.87 44.3887C137.077 44.2402 137.246 43.9688 137.379 43.5742L137.62 42.9297L135.358 36.6602H136.541L138.123 41.4121Z" fill="white"/>
<line opacity="0.5" y1="38.5" x2="52" y2="38.5" stroke="white"/>
<line opacity="0.5" x1="149" y1="38.5" x2="201" y2="38.5" stroke="white"/>
</svg>
