<?xml version="1.0" encoding="utf-8"?>
<!-- Generator: Adobe Illustrator 25.0.1, SVG Export Plug-In . SVG Version: 6.00 Build 0)  -->
<svg version="1.1" id="Layer_1" xmlns="http://www.w3.org/2000/svg" xmlns:xlink="http://www.w3.org/1999/xlink" x="0px" y="0px"
	 viewBox="0 0 201 47" style="enable-background:new 0 0 201 47;" xml:space="preserve">
<style type="text/css">
	.st0{fill:#751C24;}
	.st1{fill:#303440;}
	.st2{fill:#5F5F5F;}
	.st3{opacity:0.5;fill:none;stroke:#5F5F5F;enable-background:new    ;}
</style>
<path class="st0" d="M5.7,24.2c-1,0-1.9-0.2-2.6-0.5s-1.2-0.6-1.5-1s-0.5-0.6-0.5-0.6l0.6-0.9c0,0,0.2,0.2,0.5,0.6
	c0.3,0.3,0.7,0.6,1.3,0.9s1.3,0.4,2.2,0.4c1,0,1.8-0.3,2.4-0.9S9,20.9,9,20c0-0.6-0.1-1.1-0.4-1.5c-0.3-0.4-0.6-0.7-1.1-1
	c-0.4-0.2-1-0.5-1.7-0.8c-0.8-0.3-1.5-0.7-2-1c-0.5-0.3-0.9-0.7-1.3-1.2c-0.5-0.5-0.7-1.2-0.7-2c0-1.3,0.4-2.4,1.2-3.1
	c0.9-0.8,2-1.2,3.4-1.2c0.7,0,1.3,0.1,1.8,0.3c0.6,0.2,1,0.4,1.3,0.6C9.8,9.3,10,9.5,10,9.5l-0.2,1.1c0,0-0.2-0.2-0.5-0.4
	C9,10,8.6,9.8,8.1,9.6s-1-0.3-1.7-0.3c-0.9,0-1.6,0.2-2.1,0.7s-0.8,1.2-0.8,2c0,0.6,0.1,1.1,0.4,1.5s0.6,0.7,1.1,0.9
	c0.4,0.2,1,0.5,1.7,0.8c0.8,0.4,1.5,0.7,2,1c0.5,0.3,0.9,0.7,1.3,1.3c0.4,0.6,0.6,1.3,0.6,2.2c0,0.9-0.2,1.7-0.6,2.4
	c-0.4,0.7-1,1.2-1.7,1.6C7.5,24,6.7,24.2,5.7,24.2z M14,24V8.4h1.8V24H14z M20.4,24V8.4h1.9l8,12.9l-0.1-0.6V8.4h1.3V24h-1.6
	l-8.3-13.3l0,0l0.1,0.7V24H20.4z M41.3,24.2c-2,0-3.6-0.7-4.7-2.1c-1.1-1.4-1.7-3.4-1.7-5.9s0.6-4.5,1.8-5.9s2.9-2.1,5.2-2.1
	c0.7,0,1.4,0.1,2.1,0.3c0.7,0.2,1.3,0.4,1.8,0.6s0.7,0.4,0.7,0.4l-0.2,1.2c0,0-0.2-0.1-0.7-0.4c-0.5-0.2-1-0.4-1.6-0.6
	c-0.6-0.2-1.2-0.3-1.8-0.3c-1.8,0-3.1,0.6-4,1.7c-0.8,1.1-1.3,2.8-1.3,5.1c0,2.2,0.4,3.9,1.2,5.1c0.8,1.1,2,1.7,3.5,1.7
	c1.2,0,2.1-0.3,2.6-0.9s0.9-1.2,1.1-1.7v-3.5h-3.2v-1h4.7V24h-0.9l-0.5-1.7c-0.4,0.6-0.9,1-1.6,1.4S42.3,24.2,41.3,24.2z M49.2,24
	l5.3-15.6h2.1L61.7,24h-1.9l-1.6-4.8h-6.1L50.5,24H49.2z M52.4,18.2h5.5l-2.7-8.4L52.4,18.2z M64.5,8.4h3.7c1.6,0,2.8,0.4,3.7,1.2
	c0.9,0.8,1.3,2.1,1.3,3.7c0,1.2-0.2,2.2-0.7,3c-0.5,0.8-1.1,1.3-1.9,1.7c-0.8,0.3-1.6,0.5-2.4,0.5h-2V24h-1.8V8.4H64.5z M68.1,17.5
	c2.2,0,3.4-1.4,3.4-4.1c0-1.3-0.3-2.3-0.9-3s-1.4-1-2.5-1h-1.7v8.1H68.1z M82,24.2c-1.4,0-2.6-0.3-3.6-1c-1-0.6-1.8-1.6-2.3-2.8
	c-0.5-1.2-0.8-2.6-0.8-4.3c0-1.6,0.3-3.1,0.8-4.3s1.3-2.1,2.3-2.8c1-0.7,2.2-1,3.6-1s2.6,0.3,3.6,1c1,0.6,1.8,1.6,2.3,2.8
	s0.8,2.6,0.8,4.3c0,1.6-0.3,3.1-0.8,4.3c-0.5,1.2-1.3,2.1-2.3,2.8S83.4,24.2,82,24.2z M82,23.1c1.5,0,2.7-0.6,3.5-1.8
	c0.8-1.2,1.2-2.9,1.2-5.1s-0.4-3.9-1.2-5.1c-0.8-1.2-2-1.8-3.5-1.8s-2.7,0.6-3.5,1.8s-1.2,2.9-1.2,5.1s0.4,3.9,1.2,5.1
	C79.3,22.5,80.5,23.1,82,23.1z M92.1,8.4h3.8c1.6,0,2.8,0.4,3.7,1.2c0.9,0.8,1.3,2,1.3,3.5c0,1.2-0.3,2.2-0.8,3s-1.2,1.3-2.1,1.7
	l4,6.2h-2.1l-3.6-5.8H94V24h-1.8L92.1,8.4L92.1,8.4z M95.9,17.1c1,0,1.8-0.3,2.4-0.9c0.5-0.6,0.8-1.6,0.8-3c0-2.5-1.1-3.8-3.4-3.8
	H94v7.7H95.9z M105.1,24V8.4h8.4v1.2h-6.6v6h6v1.1h-6v6.2h7.1V24H105.1z"/>
<path class="st1" d="M128.6,24.2c-2.2,0-3.8-0.7-5-2.1s-1.8-3.3-1.8-5.8c0-1.6,0.3-3.1,0.8-4.3c0.6-1.2,1.3-2.2,2.4-2.8
	c1-0.7,2.2-1,3.6-1c0.7,0,1.4,0.1,2.1,0.3c0.7,0.2,1.3,0.4,1.8,0.6c0.5,0.2,0.7,0.4,0.7,0.4l-0.2,1.2c0,0-0.2-0.1-0.7-0.4
	c-0.5-0.2-1-0.4-1.6-0.6c-0.6-0.2-1.2-0.3-1.8-0.3c-1.6,0-2.8,0.6-3.6,1.8c-0.9,1.2-1.3,2.9-1.3,5.1s0.4,3.9,1.3,5s2.2,1.7,3.8,1.7
	c0.8,0,1.6-0.2,2.2-0.5c0.6-0.4,1.1-0.7,1.5-1.1s0.6-0.6,0.6-0.7l0.7,0.8c0,0.1-0.2,0.4-0.6,0.8c-0.4,0.5-1,0.9-1.8,1.3
	C130.6,24,129.7,24.2,128.6,24.2z M142.1,24.2c-1.4,0-2.6-0.3-3.6-1c-1-0.6-1.8-1.6-2.3-2.8c-0.5-1.2-0.8-2.6-0.8-4.3
	c0-1.6,0.3-3.1,0.8-4.3s1.3-2.1,2.3-2.8c1-0.7,2.2-1,3.6-1s2.6,0.3,3.6,1c1,0.6,1.8,1.6,2.3,2.8s0.8,2.6,0.8,4.3
	c0,1.6-0.3,3.1-0.8,4.3c-0.5,1.2-1.3,2.1-2.3,2.8C144.7,23.9,143.5,24.2,142.1,24.2z M142.1,23.1c1.5,0,2.7-0.6,3.5-1.8
	c0.8-1.2,1.2-2.9,1.2-5.1s-0.4-3.9-1.2-5.1s-2-1.8-3.5-1.8s-2.7,0.6-3.5,1.8s-1.2,2.9-1.2,5.1s0.4,3.9,1.2,5.1
	C139.4,22.5,140.6,23.1,142.1,23.1z M157.4,24.2c-1.7,0-3.1-0.5-4-1.4c-0.9-1-1.4-2.3-1.4-3.9V8.4h1.8v10.1c0,1.5,0.3,2.6,1,3.4
	c0.6,0.8,1.6,1.2,2.8,1.2c1.3,0,2.2-0.4,2.9-1.2c0.7-0.8,1-1.9,1-3.3V8.4h1.3v10.5c0,1.6-0.4,2.9-1.3,3.9
	C160.6,23.8,159.2,24.2,157.4,24.2z M167.1,8.4h3.8c1.6,0,2.8,0.4,3.7,1.2s1.3,2,1.3,3.5c0,1.2-0.3,2.2-0.8,3s-1.2,1.3-2.1,1.7
	l4,6.2h-2.1l-3.6-5.8h-2.4V24h-1.8L167.1,8.4L167.1,8.4z M170.9,17.1c1,0,1.8-0.3,2.4-0.9c0.5-0.6,0.8-1.6,0.8-3
	c0-2.5-1.1-3.8-3.4-3.8H169v7.7H170.9z M182.4,24V9.6H178V8.4h10.7v1.2h-4.5V24H182.4z M194.5,24.2c-1,0-1.9-0.2-2.6-0.5
	c-0.7-0.3-1.2-0.6-1.5-1s-0.5-0.6-0.5-0.6l0.6-0.9c0,0,0.2,0.2,0.5,0.6c0.3,0.3,0.7,0.6,1.3,0.9s1.3,0.4,2.2,0.4
	c1,0,1.8-0.3,2.4-0.9c0.6-0.6,0.9-1.3,0.9-2.2c0-0.6-0.1-1.1-0.4-1.5c-0.3-0.4-0.6-0.7-1.1-1c-0.4-0.2-1-0.5-1.7-0.8
	c-0.8-0.3-1.5-0.7-2-1c-0.5-0.3-0.9-0.7-1.3-1.2c-0.4-0.5-0.5-1.2-0.5-2.1c0-1.3,0.4-2.4,1.2-3.1c0.8-0.8,1.9-1.2,3.3-1.2
	c0.7,0,1.3,0.1,1.8,0.3c0.6,0.2,1,0.4,1.3,0.6c0.3,0.2,0.5,0.4,0.5,0.4l-0.2,1.1c0,0-0.2-0.2-0.5-0.4s-0.7-0.4-1.2-0.6
	c-0.5-0.2-1-0.3-1.7-0.3c-0.9,0-1.6,0.2-2.1,0.7s-0.8,1.2-0.8,2c0,0.6,0.1,1.1,0.4,1.5c0.3,0.4,0.6,0.7,1.1,0.9
	c0.4,0.2,1,0.5,1.7,0.8c0.8,0.4,1.5,0.7,2,1c0.5,0.3,0.9,0.7,1.3,1.3c0.4,0.6,0.6,1.3,0.6,2.2c0,0.9-0.2,1.7-0.6,2.4
	c-0.4,0.7-1,1.2-1.7,1.6C196.4,24,195.5,24.2,194.5,24.2z"/>
<path class="st2" d="M68,35.4h-2.7V43h-1.1v-7.6h-2.7v-0.9H68V35.4z M70.8,37.4c0.5-0.6,1.1-0.9,1.9-0.9c1.3,0,2,0.8,2,2.3V43h-1.1
	v-4.2c0-0.5-0.1-0.8-0.3-1c-0.2-0.2-0.5-0.3-1-0.3c-0.4,0-0.7,0.1-0.9,0.3c-0.3,0.2-0.5,0.4-0.6,0.7V43h-1.1v-9h1.1V37.4z
	 M79.5,43.1c-0.9,0-1.6-0.3-2.1-0.8c-0.5-0.6-0.8-1.3-0.8-2.3v-0.2c0-0.6,0.1-1.2,0.4-1.7c0.2-0.5,0.6-0.9,1-1.2s0.9-0.4,1.4-0.4
	c0.8,0,1.5,0.3,1.9,0.8c0.5,0.5,0.7,1.3,0.7,2.3v0.5h-4.3c0,0.6,0.2,1.1,0.5,1.5c0.4,0.4,0.8,0.6,1.3,0.6c0.4,0,0.7-0.1,1-0.2
	c0.3-0.2,0.5-0.4,0.7-0.6l0.7,0.5C81.4,42.7,80.6,43.1,79.5,43.1z M79.4,37.4c-0.4,0-0.8,0.2-1.1,0.5c-0.3,0.3-0.5,0.8-0.6,1.3h3.2
	v-0.1c0-0.6-0.2-1-0.4-1.3C80.2,37.6,79.8,37.4,79.4,37.4z M91.2,34.5h1.1v6c0,0.8-0.2,1.5-0.7,1.9c-0.5,0.5-1.1,0.7-2,0.7
	c-0.8,0-1.5-0.2-2-0.7c-0.5-0.4-0.7-1-0.7-1.8H88c0,0.5,0.1,0.9,0.4,1.1c0.3,0.3,0.7,0.4,1.2,0.4s0.8-0.1,1.1-0.4
	c0.3-0.3,0.4-0.7,0.4-1.2L91.2,34.5L91.2,34.5z M98.6,42.4c-0.4,0.5-1,0.7-1.9,0.7c-0.7,0-1.2-0.2-1.5-0.6c-0.4-0.4-0.5-1-0.5-1.7
	v-4.1h1.1v4.1c0,1,0.4,1.4,1.2,1.4c0.8,0,1.4-0.3,1.7-0.9v-4.6h1.1V43h-1L98.6,42.4z M101.6,39.8c0-1,0.2-1.8,0.7-2.3
	c0.5-0.6,1.1-0.9,1.8-0.9c0.7,0,1.3,0.3,1.8,0.8V34h1.1v9h-1l-0.1-0.7c-0.4,0.5-1,0.8-1.8,0.8c-0.7,0-1.3-0.3-1.8-0.9
	C101.8,41.6,101.6,40.8,101.6,39.8L101.6,39.8z M102.7,39.9c0,0.7,0.1,1.3,0.4,1.7s0.7,0.6,1.2,0.6c0.7,0,1.2-0.3,1.5-0.9v-2.9
	c-0.3-0.6-0.8-0.9-1.5-0.9c-0.5,0-0.9,0.2-1.2,0.6C102.8,38.5,102.7,39.1,102.7,39.9z M110.4,43h-1.1v-6.3h1.1V43z M109.2,35
	c0-0.2,0.1-0.3,0.2-0.4c0.1-0.1,0.3-0.2,0.5-0.2s0.4,0.1,0.5,0.2c0.1,0.1,0.2,0.3,0.2,0.4s-0.1,0.3-0.2,0.4
	c-0.1,0.1-0.3,0.2-0.5,0.2s-0.4-0.1-0.5-0.2C109.3,35.3,109.2,35.2,109.2,35z M115.3,42.2c0.4,0,0.7-0.1,1-0.4
	c0.3-0.2,0.5-0.5,0.5-0.9h1c0,0.4-0.1,0.7-0.4,1c-0.2,0.3-0.5,0.6-0.9,0.8s-0.8,0.3-1.2,0.3c-0.9,0-1.6-0.3-2.1-0.9
	c-0.5-0.6-0.8-1.4-0.8-2.4v-0.2c0-0.6,0.1-1.2,0.3-1.6c0.2-0.5,0.6-0.9,1-1.1c0.4-0.3,0.9-0.4,1.5-0.4c0.7,0,1.3,0.2,1.8,0.6
	c0.5,0.4,0.7,1,0.8,1.7h-1c0-0.4-0.2-0.7-0.5-1s-0.6-0.4-1-0.4c-0.6,0-1,0.2-1.3,0.6c-0.3,0.4-0.5,1-0.5,1.7V40
	c0,0.7,0.2,1.3,0.5,1.7C114.3,42,114.7,42.2,115.3,42.2z M120.8,43h-1.1v-6.3h1.1V43z M119.6,35c0-0.2,0.1-0.3,0.2-0.4
	c0.1-0.1,0.3-0.2,0.5-0.2s0.4,0.1,0.5,0.2c0.1,0.1,0.2,0.3,0.2,0.4s-0.1,0.3-0.2,0.4c-0.1,0.1-0.3,0.2-0.5,0.2s-0.4-0.1-0.5-0.2
	S119.6,35.2,119.6,35z M127.1,43c-0.1-0.1-0.1-0.3-0.2-0.7c-0.5,0.5-1.1,0.8-1.8,0.8c-0.6,0-1.1-0.2-1.5-0.5
	c-0.4-0.4-0.6-0.8-0.6-1.3c0-0.7,0.3-1.2,0.8-1.5c0.5-0.4,1.2-0.6,2.1-0.6h1.1v-0.5c0-0.4-0.1-0.7-0.3-0.9c-0.2-0.2-0.6-0.3-1-0.3
	s-0.7,0.1-1,0.3s-0.4,0.4-0.4,0.7h-1.1c0-0.3,0.1-0.6,0.3-0.9c0.2-0.3,0.5-0.5,0.9-0.7s0.8-0.3,1.3-0.3c0.7,0,1.3,0.2,1.7,0.6
	c0.4,0.4,0.6,0.9,0.6,1.5v2.9c0,0.6,0.1,1,0.2,1.4l0,0H127.1z M125.3,42.2c0.3,0,0.7-0.1,1-0.3s0.5-0.4,0.7-0.7v-1.3h-1
	c-1.3,0-2,0.4-2,1.2c0,0.3,0.1,0.6,0.3,0.8C124.6,42.1,124.9,42.2,125.3,42.2z M133.3,37.6c-0.2,0-0.3,0-0.5,0
	c-0.7,0-1.2,0.3-1.4,0.9V43h-1.1v-6.3h1.1v0.7c0.4-0.6,0.9-0.8,1.5-0.8c0.2,0,0.4,0,0.5,0.1v0.9H133.3z M137.1,41.4l1.5-4.8h1.2
	l-2.5,7.3c-0.4,1.1-1,1.6-1.9,1.6h-0.2l-0.4-0.1v-0.9h0.3c0.4,0,0.7-0.1,0.9-0.2c0.2-0.1,0.4-0.4,0.5-0.8l0.2-0.6l-2.3-6.3h1.2
	L137.1,41.4z"/>
<line class="st3" x1="0" y1="38.5" x2="52" y2="38.5"/>
<line class="st3" x1="149" y1="38.5" x2="201" y2="38.5"/>
</svg>
